<svg width="29" height="30" viewBox="0 0 29 30" fill="none" xmlns="http://www.w3.org/2000/svg">
<path fill-rule="evenodd" clip-rule="evenodd" d="M28.8 15.028C28.8 13.9861 28.7065 12.9842 28.5328 12.0225H14.6938V17.7063H22.6018C22.2612 19.5431 21.2259 21.0993 19.6697 22.1412V25.828H24.4185C27.197 23.27 28.8 19.503 28.8 15.028Z" fill="#4285F4"/>
<path fill-rule="evenodd" clip-rule="evenodd" d="M14.694 29.3874C18.6613 29.3874 21.9875 28.0716 24.4186 25.8275L19.6699 22.1406C18.3541 23.0223 16.671 23.5432 14.694 23.5432C10.8669 23.5432 7.62755 20.9585 6.47208 17.4854H1.56299V21.2924C3.9808 26.0946 8.95 29.3874 14.694 29.3874Z" fill="#34A853"/>
<path fill-rule="evenodd" clip-rule="evenodd" d="M6.47199 17.4855C6.17811 16.6038 6.01113 15.6621 6.01113 14.6936C6.01113 13.7252 6.17811 12.7834 6.47199 11.9018V8.09473H1.56289C0.567718 10.0784 0 12.3226 0 14.6936C0 17.0647 0.567718 19.3088 1.56289 21.2925L6.47199 17.4855Z" fill="#FBBC05"/>
<path fill-rule="evenodd" clip-rule="evenodd" d="M14.694 5.84416C16.8513 5.84416 18.7882 6.58553 20.311 8.04156L24.5255 3.82709C21.9808 1.45603 18.6546 0 14.694 0C8.95 0 3.9808 3.29276 1.56299 8.09499L6.47208 11.902C7.62755 8.42894 10.8669 5.84416 14.694 5.84416Z" fill="#EA4335"/>
</svg>
